<?xml version="1.0" encoding="UTF-8"?>
<svg xmlns="http://www.w3.org/2000/svg" version="1.1" xmlns:xlink="http://www.w3.org/1999/xlink" viewBox="0 0 40 40" display="none" width="0" height="0">
	<symbol id="discord" viewBox="0 0 40 40"><path d="M33.2,8.3c-2.5-1.1-5.1-1.9-7.9-2.4c-0.3,0.6-0.7,1.4-1,2c-2.9-0.4-5.8-0.4-8.7,0c-0.3-0.6-0.7-1.4-1-2 c-2.8,0.5-5.4,1.3-7.9,2.4c-5,7.2-6.3,14.2-5.6,21.1c3.3,2.3,6.5,3.8,9.6,4.7c0.8-1,1.5-2.1,2.1-3.3c-1.1-0.4-2.2-0.9-3.2-1.5 c0.3-0.2,0.5-0.4,0.8-0.6c6.3,2.8,13,2.8,19.2,0c0.3,0.2,0.5,0.4,0.8,0.6c-1,0.6-2.1,1.1-3.2,1.5c0.6,1.1,1.3,2.2,2.1,3.3 c3.1-0.9,6.3-2.4,9.6-4.7C39.7,21.4,37.5,14.4,33.2,8.3z M13.7,25.1c-1.9,0-3.4-1.7-3.4-3.7s1.5-3.7,3.4-3.7c1.9,0,3.5,1.7,3.4,3.7 C17.1,23.4,15.6,25.1,13.7,25.1z M26.3,25.1c-1.9,0-3.4-1.7-3.4-3.7s1.5-3.7,3.4-3.7c1.9,0,3.5,1.7,3.4,3.7 C29.7,23.4,28.2,25.1,26.3,25.1z"/></symbol>
	<symbol id="steam" viewBox="0 0 40 40"><path d="M32.3,14.4c0,1.2-0.4,2.2-1.3,3.1s-1.9,1.3-3.1,1.3s-2.2-0.4-3.1-1.3c-0.9-0.9-1.3-1.9-1.3-3.1s0.4-2.2,1.3-3.1 c0.9-0.9,1.9-1.3,3.1-1.3s2.2,0.4,3.1,1.3S32.3,13.2,32.3,14.4z M18.5,27.6c0-1.2-0.4-2.3-1.3-3.2c-0.9-0.9-1.9-1.3-3.2-1.3 c-0.3,0-0.6,0-1,0.1l1.9,0.8c0.9,0.4,1.6,1,2,1.9c0.4,0.9,0.4,1.8,0,2.7c-0.4,0.9-1,1.6-1.9,1.9c-0.9,0.4-1.8,0.4-2.7,0 c-0.3-0.1-0.6-0.2-1.1-0.4c-0.5-0.2-0.9-0.3-1.1-0.4c0.4,0.7,0.9,1.3,1.6,1.7c0.7,0.4,1.5,0.7,2.3,0.7c1.2,0,2.3-0.4,3.2-1.3 C18.1,29.9,18.5,28.9,18.5,27.6L18.5,27.6z M33.3,14.4c0-1.5-0.5-2.8-1.6-3.8C30.7,9.5,29.4,9,27.9,9c-1.5,0-2.8,0.5-3.9,1.6 c-1.1,1.1-1.6,2.3-1.6,3.8c0,1.5,0.5,2.8,1.6,3.9c1.1,1.1,2.4,1.6,3.9,1.6c1.5,0,2.8-0.5,3.8-1.6C32.8,17.2,33.3,15.9,33.3,14.4z M36,14.4c0,2.2-0.8,4.2-2.4,5.7c-1.6,1.6-3.5,2.4-5.7,2.4l-7.8,5.7c-0.1,1.5-0.8,2.8-1.9,3.9s-2.5,1.6-4.1,1.6 c-1.4,0-2.7-0.5-3.8-1.4s-1.8-2-2.1-3.4L4,27.3v-7.7l6.9,2.8c0.9-0.6,2-0.9,3.1-0.9c0.2,0,0.4,0,0.6,0l5.1-7.3 c0-2.2,0.8-4.1,2.4-5.7s3.5-2.4,5.7-2.4c2.2,0,4.2,0.8,5.7,2.4C35.2,10.3,36,12.2,36,14.4z"/></symbol>
	<symbol id="youtube" viewBox="0 0 32 32"><path d="M31.681 9.6c0 0-0.313-2.206-1.275-3.175-1.219-1.275-2.581-1.281-3.206-1.356-4.475-0.325-11.194-0.325-11.194-0.325h-0.012c0 0-6.719 0-11.194 0.325-0.625 0.075-1.987 0.081-3.206 1.356-0.963 0.969-1.269 3.175-1.269 3.175s-0.319 2.588-0.319 5.181v2.425c0 2.587 0.319 5.181 0.319 5.181s0.313 2.206 1.269 3.175c1.219 1.275 2.819 1.231 3.531 1.369 2.563 0.244 10.881 0.319 10.881 0.319s6.725-0.012 11.2-0.331c0.625-0.075 1.988-0.081 3.206-1.356 0.962-0.969 1.275-3.175 1.275-3.175s0.319-2.587 0.319-5.181v-2.425c-0.006-2.588-0.325-5.181-0.325-5.181zM12.694 20.15v-8.994l8.644 4.513-8.644 4.481z"></path></symbol>
	<symbol id="tiktok" viewBox="0 0 32 32"><path d="M16.707 0.027c1.747-0.027 3.48-0.013 5.213-0.027 0.107 2.040 0.84 4.12 2.333 5.56 1.493 1.48 3.6 2.16 5.653 2.387v5.373c-1.92-0.067-3.853-0.467-5.6-1.293-0.76-0.347-1.467-0.787-2.16-1.24-0.013 3.893 0.013 7.787-0.027 11.667-0.107 1.867-0.72 3.72-1.8 5.253-1.747 2.56-4.773 4.227-7.88 4.28-1.907 0.107-3.813-0.413-5.44-1.373-2.693-1.587-4.587-4.493-4.867-7.613-0.027-0.667-0.040-1.333-0.013-1.987 0.24-2.533 1.493-4.96 3.44-6.613 2.213-1.92 5.307-2.84 8.2-2.293 0.027 1.973-0.053 3.947-0.053 5.92-1.32-0.427-2.867-0.307-4.027 0.493-0.84 0.547-1.48 1.387-1.813 2.333-0.28 0.68-0.2 1.427-0.187 2.147 0.32 2.187 2.427 4.027 4.667 3.827 1.493-0.013 2.92-0.88 3.693-2.147 0.253-0.44 0.533-0.893 0.547-1.413 0.133-2.387 0.080-4.76 0.093-7.147 0.013-5.373-0.013-10.733 0.027-16.093z"></path></symbol>
	<symbol id="twitter" viewBox="0 0 32 32"><path d="M32 7.075c-1.175 0.525-2.444 0.875-3.769 1.031 1.356-0.813 2.394-2.1 2.887-3.631-1.269 0.75-2.675 1.3-4.169 1.594-1.2-1.275-2.906-2.069-4.794-2.069-3.625 0-6.563 2.938-6.563 6.563 0 0.512 0.056 1.012 0.169 1.494-5.456-0.275-10.294-2.888-13.531-6.862-0.563 0.969-0.887 2.1-0.887 3.3 0 2.275 1.156 4.287 2.919 5.463-1.075-0.031-2.087-0.331-2.975-0.819 0 0.025 0 0.056 0 0.081 0 3.181 2.263 5.838 5.269 6.437-0.55 0.15-1.131 0.231-1.731 0.231-0.425 0-0.831-0.044-1.237-0.119 0.838 2.606 3.263 4.506 6.131 4.563-2.25 1.762-5.075 2.813-8.156 2.813-0.531 0-1.050-0.031-1.569-0.094 2.913 1.869 6.362 2.95 10.069 2.95 12.075 0 18.681-10.006 18.681-18.681 0-0.287-0.006-0.569-0.019-0.85 1.281-0.919 2.394-2.075 3.275-3.394z"></path></symbol>
	<symbol id="vk" viewBox="0 0 32 32"><path d="M29 0h-26c-1.65 0-3 1.35-3 3v26c0 1.65 1.35 3 3 3h26c1.65 0 3-1.35 3-3v-26c0-1.65-1.35-3-3-3zM25.919 22.4l-2.925 0.044c0 0-0.631 0.125-1.456-0.444-1.094-0.75-2.125-2.706-2.931-2.45-0.813 0.256-0.788 2.012-0.788 2.012s0.006 0.375-0.181 0.575c-0.2 0.219-0.6 0.262-0.6 0.262h-1.306c0 0-2.888 0.175-5.431-2.475-2.775-2.887-5.225-8.619-5.225-8.619s-0.144-0.375 0.013-0.556c0.175-0.206 0.644-0.219 0.644-0.219l3.131-0.019c0 0 0.294 0.050 0.506 0.206 0.175 0.125 0.269 0.369 0.269 0.369s0.506 1.281 1.175 2.438c1.306 2.256 1.919 2.75 2.362 2.513 0.644-0.35 0.45-3.194 0.45-3.194s0.012-1.031-0.325-1.488c-0.262-0.356-0.756-0.463-0.969-0.488-0.175-0.025 0.113-0.431 0.488-0.619 0.563-0.275 1.556-0.294 2.731-0.281 0.913 0.006 1.181 0.069 1.538 0.15 1.081 0.262 0.712 1.269 0.712 3.681 0 0.775-0.137 1.863 0.419 2.219 0.238 0.156 0.825 0.025 2.294-2.469 0.694-1.181 1.219-2.569 1.219-2.569s0.113-0.25 0.288-0.356c0.181-0.106 0.425-0.075 0.425-0.075l3.294-0.019c0 0 0.988-0.119 1.15 0.331 0.169 0.469-0.369 1.563-1.712 3.356-2.206 2.944-2.456 2.669-0.619 4.369 1.75 1.625 2.113 2.419 2.175 2.519 0.712 1.2-0.813 1.294-0.813 1.294z"></path></symbol>
</svg>