<?xml version="1.0" encoding="UTF-8"?>
<svg xmlns="http://www.w3.org/2000/svg" version="1.1" xmlns:xlink="http://www.w3.org/1999/xlink" viewBox="0 0 40 40" display="none" width="0" height="0">
	<symbol id="discord" viewBox="0 0 40 40"><path d="M33.2,8.3c-2.5-1.1-5.1-1.9-7.9-2.4c-0.3,0.6-0.7,1.4-1,2c-2.9-0.4-5.8-0.4-8.7,0c-0.3-0.6-0.7-1.4-1-2 c-2.8,0.5-5.4,1.3-7.9,2.4c-5,7.2-6.3,14.2-5.6,21.1c3.3,2.3,6.5,3.8,9.6,4.7c0.8-1,1.5-2.1,2.1-3.3c-1.1-0.4-2.2-0.9-3.2-1.5 c0.3-0.2,0.5-0.4,0.8-0.6c6.3,2.8,13,2.8,19.2,0c0.3,0.2,0.5,0.4,0.8,0.6c-1,0.6-2.1,1.1-3.2,1.5c0.6,1.1,1.3,2.2,2.1,3.3 c3.1-0.9,6.3-2.4,9.6-4.7C39.7,21.4,37.5,14.4,33.2,8.3z M13.7,25.1c-1.9,0-3.4-1.7-3.4-3.7s1.5-3.7,3.4-3.7c1.9,0,3.5,1.7,3.4,3.7 C17.1,23.4,15.6,25.1,13.7,25.1z M26.3,25.1c-1.9,0-3.4-1.7-3.4-3.7s1.5-3.7,3.4-3.7c1.9,0,3.5,1.7,3.4,3.7 C29.7,23.4,28.2,25.1,26.3,25.1z"/></symbol>
	<symbol id="epic-games" viewBox="0 0 40 40"><path d="M35.5,32.1c0,0.2,0,0.4-0.1,0.6c-0.1,0.6-0.4,1.1-0.9,1.4c-0.2,0.1-0.3,0.2-0.5,0.2c-1.2,0.5-2.4,1-3.7,1.5 c-3.1,1.3-6.2,2.6-9.3,3.9c-0.2,0.1-0.4,0.1-0.6,0.2c0,0-0.1,0-0.1,0c-0.2,0-0.4,0-0.5,0c0,0,0,0,0,0c-0.2,0-0.4-0.1-0.6-0.2 c-0.2-0.1-0.4-0.2-0.5-0.2c-4.2-1.7-8.3-3.5-12.5-5.2c-0.3-0.1-0.6-0.3-0.8-0.5c-0.3-0.2-0.4-0.5-0.5-0.8c-0.1-0.3-0.1-0.5-0.1-0.8 c0-0.1,0-0.2,0-0.3c0-8.5,0-17,0-25.5c0-0.1,0-0.2,0-0.3c0-0.2,0.1-0.5,0.1-0.7c0.2-0.6,0.6-1.1,1.2-1.3C6.1,4.1,6.3,4.1,6.6,4 C6.7,4,6.8,4,7,4c8.7,0,17.4,0,26.1,0c0,0,0.1,0,0.1,0c0.3,0,0.5,0.1,0.8,0.1c0.6,0.2,1.1,0.6,1.3,1.2c0.1,0.3,0.2,0.6,0.2,0.9 c0,0.1,0,0.1,0,0.2c0,8.5,0,17,0,25.5C35.5,32,35.5,32.1,35.5,32.1z M13.5,34.7C13.6,34.7,13.6,34.7,13.5,34.7 c2.1,0.7,4.2,1.4,6.3,2.2c0.1,0,0.1,0,0.2,0c2.1-0.7,4.3-1.4,6.4-2.1c0,0,0.1,0,0.1,0c0,0,0,0,0,0c0,0-0.1,0-0.1,0 C22.1,34.6,17.8,34.6,13.5,34.7C13.5,34.6,13.5,34.6,13.5,34.7C13.5,34.6,13.5,34.6,13.5,34.7z M8.1,29.9c0.3,0.6,0.8,1,1.5,1.3 c0.4,0.1,0.9,0.1,1.3,0.1c0.5-0.1,1-0.3,1.4-0.6c0.1-0.1,0.1-0.1,0.1-0.2c0-0.6,0-1.2,0-1.8c0,0,0-0.1,0-0.1c-0.1,0-2,0-2.1,0 c0,0.3,0,0.6,0,0.9c0.3,0,0.6,0,0.9,0c0,0,0,0.1,0,0.1c0,0.1,0,0.2,0,0.3c0,0.1,0,0.1-0.1,0.2c-0.4,0.2-0.7,0.2-1.1,0.1 c-0.3-0.1-0.6-0.3-0.7-0.7c-0.1-0.3-0.1-0.5-0.1-0.8c0.1-0.5,0.4-0.9,0.9-1c0.4-0.1,0.8,0,1.1,0.2c0.1,0.1,0.2,0.1,0.3,0.2 c0.2-0.3,0.5-0.6,0.7-0.9c-0.3-0.3-0.6-0.5-1-0.5c-0.7-0.2-1.3-0.2-1.9,0.1c-0.5,0.2-0.8,0.6-1.1,1C7.8,28.5,7.8,29.2,8.1,29.9z M13.2,20.8c-1,0-1.9,0-2.8,0c0-0.3,0-4.5,0-4.6c0.3,0,0.6,0,0.9,0c0.3,0,0.6,0,0.9,0c0.3,0,0.6,0,0.9,0c0-0.7,0-1.4,0-2.1 c-0.5,0-0.9,0-1.3,0c-0.5,0-0.9,0-1.3,0c0-0.1,0-4.2,0-4.3c0.9,0,1.9,0,2.8,0c0-0.1,0-2,0-2.1c-0.3,0-5,0-5.1,0c0,5,0,10.1,0,15.1 c1.7,0,3.4,0,5.2,0C13.2,22.2,13.2,21.5,13.2,20.8z M13,30.9c0,0.1-0.1,0.2-0.1,0.3c0.4,0,0.8,0,1.3,0c0.1-0.3,0.2-0.6,0.3-0.8 c0.6,0,1.2,0,1.8,0c0.1,0.3,0.2,0.6,0.3,0.9c0.4,0,0.8,0,1.3,0c0,0,0,0,0-0.1c-0.2-0.5-0.4-1.1-0.7-1.6c-0.3-0.7-0.6-1.4-0.9-2.1 c-0.1-0.3-0.2-0.5-0.3-0.8c0-0.1-0.1-0.1-0.1-0.1c-0.3,0-0.7,0-1,0c-0.1,0-0.1,0-0.1,0.1c0,0.1-0.1,0.1-0.1,0.2 c-0.2,0.6-0.5,1.1-0.7,1.7C13.6,29.3,13.3,30.1,13,30.9z M20.7,11.2c0-0.3,0-0.6,0-0.8c0-0.3,0-0.6-0.1-0.9 c-0.2-0.8-0.8-1.4-1.6-1.6c-0.4-0.1-0.7-0.1-1.1-0.1c-1.2,0-2.3,0-3.5,0c0,0-0.1,0-0.1,0c0,0.2,0,15.1,0,15.2c0.2,0,2.2,0,2.3,0 c0-1.8,0-3.6,0-5.5c0.1,0,0.1,0,0.1,0c0.4,0,0.8,0,1.3,0c0.3,0,0.6,0,0.9-0.1c0.9-0.2,1.5-0.8,1.7-1.7c0.1-0.3,0.1-0.7,0.1-1 C20.7,13.5,20.7,12.3,20.7,11.2z M19.7,26.6c-0.4,0-0.9,0-1.3,0c0,1.5,0,3.1,0,4.6c0.4,0,0.8,0,1.2,0c0,0,0,0,0,0c0,0,0,0,0,0 c0-0.8,0-1.7,0-2.5c0,0,0,0,0,0c0,0,0,0,0,0c0,0,0,0,0,0c0,0,0,0,0,0c0.4,0.6,0.8,1.2,1.2,1.8c0.4-0.6,0.8-1.2,1.2-1.8c0,0,0,0,0,0 c0,0.9,0,1.8,0,2.7c0.4,0,0.8,0,1.2,0c0-0.2,0-4.5,0-4.6c-0.4,0-0.8,0-1.3,0c-0.4,0.6-0.7,1.2-1.1,1.8C20.4,27.8,20,27.2,19.7,26.6z M24.1,7.7c-0.8,0-1.5,0-2.3,0c0,5.1,0,10.1,0,15.2c0.8,0,1.5,0,2.3,0C24.1,17.8,24.1,12.8,24.1,7.7z M24.1,31.2c0.2,0,3.6,0,3.6,0 c0-0.2,0-0.9,0-1c-0.8,0-1.6,0-2.4,0c0-0.3,0-0.5,0-0.8c0.2,0,0.4,0,0.5,0c0.2,0,0.4,0,0.5,0c0.2,0,0.4,0,0.6,0c0.2,0,0.4,0,0.5,0 c0-0.3,0-0.6,0-1c-0.7,0-1.4,0-2.2,0c0-0.3,0-0.5,0-0.7c0.4,0,0.8,0,1.2,0c0.4,0,0.8,0,1.2,0c0-0.4,0-0.7,0-1c-0.2,0-3.5,0-3.6,0 C24.1,28.1,24.1,29.7,24.1,31.2z M32,16.8c0,0,0-0.1,0-0.1c-0.8,0-1.5,0-2.3,0c0,0.1,0,0.1,0,0.1c0,1.1,0,2.1,0,3.2 c0,0.1,0,0.2,0,0.2c0,0.4-0.3,0.7-0.7,0.7c-0.3,0-0.5,0-0.8,0c-0.4,0-0.6-0.3-0.7-0.7c0-0.1,0-0.2,0-0.3c0-3.1,0-6.3,0-9.4 c0-0.1,0-0.2,0-0.3c0-0.4,0.3-0.6,0.6-0.6c0.2,0,0.4,0,0.6,0c0.1,0,0.2,0,0.3,0c0.3,0,0.5,0.2,0.6,0.5c0,0.1,0,0.3,0,0.4 c0,0.9,0,1.8,0,2.8c0,0,0,0.1,0,0.1c0.2,0,2.2,0,2.3,0c0,0,0,0,0-0.1c0-1.1,0-2.1,0-3.2c0-0.3,0-0.6-0.1-0.9 c-0.2-0.8-0.8-1.4-1.6-1.6c-0.3-0.1-0.6-0.1-0.9-0.1c-0.5,0-0.9,0-1.4,0c-0.3,0-0.6,0-0.8,0.1c-0.9,0.2-1.5,0.8-1.7,1.7 c-0.1,0.3-0.1,0.7-0.1,1c0,3.3,0,6.5,0,9.8c0,0.1,0,0.1,0,0.2c0,0.3,0.1,0.6,0.1,0.9c0.2,0.7,0.7,1.2,1.4,1.5 c0.3,0.1,0.6,0.2,0.9,0.2c0.6,0,1.1,0,1.7,0c0.3,0,0.6,0,0.9-0.1c0.9-0.2,1.4-0.7,1.7-1.6c0.1-0.3,0.1-0.7,0.1-1 C32,19.1,32,18,32,16.8z M32.1,29.7c0-0.4-0.2-0.7-0.5-0.9c-0.2-0.1-0.3-0.2-0.5-0.3c-0.3-0.1-0.5-0.1-0.8-0.2 c-0.1,0-0.3-0.1-0.4-0.1c-0.1,0-0.1-0.1-0.2-0.1c-0.2-0.2-0.1-0.4,0.2-0.5c0.1,0,0.2,0,0.4,0c0.4,0,0.7,0.2,1,0.4 c0,0,0.1,0.1,0.1,0.1c0.2-0.3,0.4-0.6,0.6-0.9c-0.2-0.1-0.4-0.3-0.6-0.4c-0.3-0.1-0.7-0.2-1-0.2c-0.3,0-0.6,0-0.9,0.1 c-0.3,0.1-0.5,0.2-0.7,0.4c-0.3,0.3-0.4,0.7-0.4,1.1c0,0.4,0.2,0.8,0.6,1c0.1,0.1,0.3,0.2,0.4,0.2c0.3,0.1,0.6,0.2,0.9,0.2 c0.1,0,0.3,0.1,0.4,0.2c0.1,0.1,0.2,0.2,0.2,0.3c0,0.1-0.1,0.2-0.2,0.3c-0.1,0-0.2,0-0.4,0c-0.4,0-0.8-0.1-1.1-0.4 c-0.1-0.1-0.2-0.1-0.3-0.2c-0.2,0.3-0.4,0.5-0.7,0.8c0,0,0.1,0.1,0.1,0.1c0.4,0.3,0.8,0.5,1.3,0.6c0.5,0.1,1,0.1,1.5-0.1 c0.3-0.1,0.5-0.3,0.7-0.5C32,30.3,32.1,30,32.1,29.7z M18.4,14.7c-0.1,0.4-0.3,0.6-0.7,0.6c-0.3,0-0.7,0-1,0c0,0,0,0,0,0 c0-1.9,0-3.7,0-5.6c0,0,0.1,0,0.1,0c0.3,0,0.5,0,0.8,0c0.1,0,0.2,0,0.3,0c0.3,0.1,0.5,0.3,0.6,0.6c0,0.1,0,0.2,0,0.3 c0,1.3,0,2.6,0,3.8C18.4,14.6,18.4,14.7,18.4,14.7z M15.8,29.4c-0.3,0-0.7,0-1,0c0-0.1,0.3-1,0.5-1.3C15.4,28.1,15.8,29.2,15.8,29.4 z"/></symbol>
	<symbol id="nintendo-switch" viewBox="0 0 40 40"><path d="M35.1,30.1c-0.1,0.3-0.3,0.8-0.5,1.1c-1.3,2.4-3.6,3.9-6.2,4.2c-0.6,0.1-5.6,0.1-5.8,0c-0.1,0-0.1-1.5-0.1-15.5 c0-8.5,0-15.4,0-15.5c0,0,1.3,0,2.8,0c2.2,0,2.9,0,3.4,0.1c3.4,0.6,5.9,3.1,6.5,6.4c0.1,0.5,0.1,1.6,0.1,8.9 C35.5,29.2,35.5,28.9,35.1,30.1z M31.7,20.5c-0.3-1-1.2-1.7-2.2-2c-1.6-0.4-3.3,0.5-3.8,2.1c-0.2,0.5-0.2,1.3,0,1.8 c0.5,1.6,2.2,2.6,3.8,2.1c1-0.3,1.8-1,2.2-2C31.9,22,31.9,21.1,31.7,20.5z M15.3,35.5c-3.5,0-4,0-4.4-0.1c-3.2-0.8-5.5-3-6.2-6.3 c-0.1-0.6-0.1-0.8-0.2-8.5c0-8.4,0-9.1,0.3-10.1c0.8-3,3.3-5.3,6.4-5.8c0.4-0.1,1.3-0.1,4.4-0.1c3.8,0,3.9,0,3.9,0.1 c0,0.1,0.1,5,0.1,15.4c0,14,0,15.3-0.1,15.4C19.3,35.5,18.9,35.5,15.3,35.5z M16.9,20V7l-2.5,0c-2.7,0-3.1,0-4,0.4 c-1.7,0.7-2.9,2.2-3.3,4C7,12,7,28,7.2,28.6c0.4,2.1,2,3.7,4,4.2c0.5,0.1,0.7,0.1,3.1,0.2l2.6,0V20z M12.1,16.7 c-0.6,0-0.7,0-1.1-0.3c-0.6-0.3-1.1-0.8-1.4-1.4c-0.2-0.4-0.2-0.5-0.3-1.1c-0.1-1,0.3-1.8,1-2.4c0.3-0.3,0.9-0.6,1.3-0.7 c1.6-0.3,3.2,0.8,3.5,2.4c0.2,1.4-0.6,2.7-2,3.2C12.8,16.7,12.6,16.7,12.1,16.7z"/></symbol>
	<symbol id="playstation" viewBox="0 0 40 40"><path d="M38.7,27.5c-0.8,1-2.6,1.6-2.6,1.6l-13.9,5v-3.7l10.2-3.6c1.2-0.4,1.3-1,0.4-1.3c-0.9-0.3-2.6-0.2-3.8,0.2 l-6.8,2.4v-3.8l0.4-0.1c0,0,2-0.7,4.7-1c2.8-0.3,6.2,0,8.8,1C39.1,25.1,39.4,26.5,38.7,27.5z M23.5,21.2v-9.4c0-1.1-0.2-2.1-1.2-2.4 c-0.8-0.3-1.3,0.5-1.3,1.6v23.6l-6.4-2V4.4c2.7,0.5,6.6,1.7,8.8,2.4c5.4,1.8,7.2,4.1,7.2,9.3C30.5,21.2,27.4,23.1,23.5,21.2z M2.9,30.1c-3.1-0.9-3.6-2.7-2.2-3.7c1.3-1,3.5-1.7,3.5-1.7l9.1-3.2v3.7l-6.6,2.3c-1.2,0.4-1.3,1-0.4,1.3c0.9,0.3,2.6,0.2,3.8-0.2 l3.1-1.1v3.3c-0.2,0-0.4,0.1-0.6,0.1C9.6,31.4,6.2,31.1,2.9,30.1L2.9,30.1z M36.6,31.5c0.4,0,0.8,0.2,1.1,0.4 c0.3,0.3,0.4,0.7,0.4,1.1c0,0.4-0.2,0.8-0.4,1.1c-0.3,0.3-0.7,0.4-1.1,0.4s-0.8-0.2-1.1-0.4c-0.3-0.3-0.4-0.7-0.4-1.1 C35.1,32.2,35.8,31.5,36.6,31.5z M35.4,33c0,0.3,0.1,0.6,0.4,0.9c0.2,0.2,0.5,0.4,0.9,0.4c0.7,0,1.2-0.6,1.2-1.2 c0-0.3-0.1-0.6-0.4-0.9c-0.2-0.2-0.5-0.4-0.9-0.4c-0.3,0-0.6,0.1-0.9,0.4C35.5,32.4,35.4,32.7,35.4,33z M37.1,32.2 c0.2,0.1,0.2,0.2,0.2,0.4c0,0.1,0,0.2-0.1,0.3c0,0-0.1,0.1-0.1,0.1c0,0,0.1,0.1,0.1,0.1c0,0,0.1,0.1,0.1,0.2l0,0.2 c0,0.1,0,0.1,0,0.1c0,0,0,0.1,0,0.1l0,0v0v0v0h0h-0.3h0l0,0c0,0,0,0,0-0.1c0,0,0-0.1,0-0.1l0-0.3c0-0.1,0-0.1-0.1-0.2 c0,0-0.1,0-0.2,0h-0.5v0.6v0h0H36h0v0v-1.6v0h0h0.7C36.9,32.2,37,32.2,37.1,32.2L37.1,32.2z M36.3,32.9h0.5c0.1,0,0.2,0,0.2-0.1 c0,0,0.1-0.1,0.1-0.2c0-0.1,0-0.2-0.1-0.2c0,0-0.1,0-0.2,0h-0.5V32.9L36.3,32.9z"/></symbol>
	<symbol id="steam" viewBox="0 0 40 40"><path d="M32.3,14.4c0,1.2-0.4,2.2-1.3,3.1s-1.9,1.3-3.1,1.3s-2.2-0.4-3.1-1.3c-0.9-0.9-1.3-1.9-1.3-3.1s0.4-2.2,1.3-3.1 c0.9-0.9,1.9-1.3,3.1-1.3s2.2,0.4,3.1,1.3S32.3,13.2,32.3,14.4z M18.5,27.6c0-1.2-0.4-2.3-1.3-3.2c-0.9-0.9-1.9-1.3-3.2-1.3 c-0.3,0-0.6,0-1,0.1l1.9,0.8c0.9,0.4,1.6,1,2,1.9c0.4,0.9,0.4,1.8,0,2.7c-0.4,0.9-1,1.6-1.9,1.9c-0.9,0.4-1.8,0.4-2.7,0 c-0.3-0.1-0.6-0.2-1.1-0.4c-0.5-0.2-0.9-0.3-1.1-0.4c0.4,0.7,0.9,1.3,1.6,1.7c0.7,0.4,1.5,0.7,2.3,0.7c1.2,0,2.3-0.4,3.2-1.3 C18.1,29.9,18.5,28.9,18.5,27.6L18.5,27.6z M33.3,14.4c0-1.5-0.5-2.8-1.6-3.8C30.7,9.5,29.4,9,27.9,9c-1.5,0-2.8,0.5-3.9,1.6 c-1.1,1.1-1.6,2.3-1.6,3.8c0,1.5,0.5,2.8,1.6,3.9c1.1,1.1,2.4,1.6,3.9,1.6c1.5,0,2.8-0.5,3.8-1.6C32.8,17.2,33.3,15.9,33.3,14.4z M36,14.4c0,2.2-0.8,4.2-2.4,5.7c-1.6,1.6-3.5,2.4-5.7,2.4l-7.8,5.7c-0.1,1.5-0.8,2.8-1.9,3.9s-2.5,1.6-4.1,1.6 c-1.4,0-2.7-0.5-3.8-1.4s-1.8-2-2.1-3.4L4,27.3v-7.7l6.9,2.8c0.9-0.6,2-0.9,3.1-0.9c0.2,0,0.4,0,0.6,0l5.1-7.3 c0-2.2,0.8-4.1,2.4-5.7s3.5-2.4,5.7-2.4c2.2,0,4.2,0.8,5.7,2.4C35.2,10.3,36,12.2,36,14.4z"/></symbol>
	<symbol id="vrchat" viewBox="0 0 40 40"><path d="M36.5,27.8c-0.2,1.7-1.4,3-3,3.4c-0.2,0-0.4,0.1-0.6,0.1c0,0,0,0.1,0,0.1c0,2,0,3.9,0,5.9c0,0.3,0,0.5,0,0.8 c-0.1,0.7-0.5,1.2-1.2,1.5c-0.1,0.1-0.3,0.1-0.4,0.1c-0.2,0-0.3,0-0.5,0c-0.9-0.2-1.5-0.7-2-1.4c-1.8-2.3-3.5-4.6-5.3-6.8 c-0.1-0.1-0.2-0.1-0.3-0.1c-2.4,0-4.9,0-7.3,0c-2.7,0-5.5,0-8.2,0c-2,0-3.6-1.3-4-3.2c0-0.2-0.1-0.3-0.1-0.5c0-5.9,0-11.8,0-17.7 c0,0,0-0.1,0-0.1c0.2-1.5,1.1-2.6,2.5-3.2c0.3-0.1,0.7-0.2,1.1-0.3c8.6,0,17.2,0,25.7,0c0,0,0.1,0,0.1,0c1.6,0.2,3,1.4,3.4,3 c0.1,0.2,0.1,0.4,0.1,0.6c0,5.9,0,11.8,0,17.7C36.5,27.7,36.5,27.7,36.5,27.8z M35,10.4c0,0,0-0.1,0-0.1c0-1.1-0.8-2.1-1.9-2.4 c-0.4-0.1-0.8-0.1-1.2-0.1c-8.1,0-16.2,0-24.3,0C6.1,7.8,5,8.9,5,10.5C5,16,5,21.6,5,27.2c0,1.5,1.1,2.6,2.6,2.6c1.4,0,2.8,0,4.2,0 c4,0,8,0,12,0c0.1,0,0.2,0,0.3,0.1c1.7,2.2,3.4,4.3,5,6.5c0.3,0.4,0.6,0.8,0.9,1.1c0.2,0.2,0.4,0.4,0.6,0.5c0.3,0.2,0.5,0.1,0.6-0.3 c0-0.1,0-0.3,0-0.4c0-2.4,0-4.9,0-7.3c0-0.1,0-0.2,0-0.3c0.3,0,0.5,0,0.7,0c0.3,0,0.6,0,1-0.1c1.2-0.3,2-1.3,2-2.5 C35,21.6,35,16,35,10.4z M28.3,25.6c-0.4,0-0.6-0.3-0.8-0.6c-0.6-1.2-1.3-2.5-1.9-3.7c-0.2-0.4-0.4-0.8-0.6-1.2 c0-0.1-0.1-0.1-0.2-0.1c-0.5,0-0.9,0-1.5,0c0,0.1,0,0.2,0,0.2c0,1.5,0,3,0,4.4c0,0.4-0.2,0.6-0.5,0.7c-0.5,0.2-1,0.2-1.4,0 C21.2,25.2,21,25,21,24.7c0-3.9,0-7.8,0-11.7c0-0.6,0.4-0.9,0.9-0.9c1.4,0,2.8,0,4.2,0c0.6,0,1.2,0.2,1.8,0.4c0.9,0.4,1.5,1.1,1.8,2 c0.3,1,0.3,2,0,3c-0.3,1-1,1.7-2,2c-0.1,0-0.1,0-0.2,0.1c0,0,0,0,0,0c0,0.1,0.1,0.1,0.1,0.2c0.8,1.4,1.6,2.9,2.3,4.3 c0.1,0.2,0.1,0.3,0,0.5C29.7,25.1,28.9,25.7,28.3,25.6z M27.4,15.7c-0.1-0.8-0.6-1.4-1.4-1.5c-0.8-0.1-1.7,0-2.5,0c0,0,0,0,0,0 c0,1.3,0,2.6,0,3.9c0,0,0,0,0.1,0c0.8,0,1.6,0,2.4,0c0.8,0,1.3-0.5,1.5-1.3C27.4,16.4,27.4,16,27.4,15.7z M16,24.8 c-0.1,0.3-0.3,0.5-0.6,0.7c-0.6,0.3-1.3,0.3-1.9,0c-0.3-0.1-0.5-0.4-0.7-0.7c-1.2-3.8-2.3-7.6-3.5-11.3c-0.1-0.4,0-0.7,0.3-1 c0.4-0.3,0.8-0.4,1.3-0.3c0.3,0,0.5,0.2,0.6,0.5c0.9,3.2,1.8,6.5,2.7,9.7c0,0.1,0,0.1,0,0.2c0,0,0,0,0,0c0.1-0.5,0.3-1,0.4-1.6 c0.8-2.7,1.5-5.5,2.3-8.2c0.1-0.3,0.3-0.5,0.7-0.6c0.6,0,1,0.1,1.5,0.5c0.2,0.2,0.3,0.4,0.2,0.7C18.3,17.1,17.2,21,16,24.8z"/></symbol>
	<symbol id="xbox" viewBox="0 0 40 40"><path d="M18.3,37.4c-2.7-0.3-5.4-1.2-7.8-2.8c-2-1.3-2.4-1.8-2.4-2.9c0-2.1,2.3-5.8,6.3-10c2.3-2.4,5.4-5.2,5.7-5.1 c0.7,0.1,5.9,5.3,7.9,7.7c3.1,3.8,4.6,7,3.8,8.4c-0.6,1.1-4,3.1-6.5,3.9C23.3,37.4,20.5,37.7,18.3,37.4L18.3,37.4z M5.4,29.6 c-1.6-2.5-2.5-5-2.9-8.5c-0.1-1.2-0.1-1.9,0.3-4.3c0.5-3,2.2-6.5,4.3-8.6c0.9-0.9,1-0.9,2-0.6C10.4,8,11.8,9,14,10.9l1.3,1.1 l-0.7,0.8c-3.2,3.9-6.5,9.5-7.8,12.9c-0.7,1.9-1,3.7-0.7,4.5C6.3,30.8,6.1,30.7,5.4,29.6z M34.1,30c0.2-0.8,0-2.2-0.5-3.7 c-1-3.2-4.5-9-7.7-13l-1-1.3l1.1-1c1.4-1.3,2.4-2.1,3.5-2.7c0.8-0.5,2-1,2.5-1c0.3,0,1.4,1.2,2.3,2.4c1.4,2,2.4,4.3,2.9,6.8 c0.3,1.6,0.4,5,0.1,6.6c-0.3,1.3-0.8,3-1.3,4.1c-0.4,0.9-1.4,2.5-1.8,3.1C34,30.7,34,30.7,34.1,30L34.1,30z M18.5,6.8 c-1.5-0.7-3.7-1.5-5-1.8c-0.4-0.1-1.2-0.1-1.7-0.1c-1,0.1-1,0,0.7-0.8c1.4-0.6,2.5-1,4.1-1.4c1.8-0.4,5-0.4,6.8,0 c1.9,0.4,4.1,1.2,5.3,2L29.1,5l-0.8,0c-1.7-0.1-4.1,0.6-6.7,1.9C20.7,7.2,20,7.5,20,7.5C19.9,7.5,19.3,7.1,18.5,6.8z"/></symbol>
	<symbol id="feed" viewBox="3 4 24 24"><path d="M7.5 12.21c0-.395.33-.714.737-.714h1.872c.169 0 .292-.077.447-.184A7.406 7.406 0 0114.786 10c4.023 0 7.286 3.165 7.286 7.068v6.486a.729.729 0 01-.74.718h-2.373a.73.73 0 01-.742-.718v-6.486c0-1.838-1.535-3.329-3.432-3.329-1.895 0-3.43 1.49-3.43 3.329v6.486a.73.73 0 01-.742.718H8.24a.729.729 0 01-.74-.718V12.211m2.73-5.13a11.682 11.682 0 014.802-1.023c3.872 0 7.287 1.87 9.354 4.721.17.236.496.285.726.113a.538.538 0 00.11-.741C22.96 7.03 19.235 5 15.031 5A12.68 12.68 0 009.81 6.114a.532.532 0 00-.265.698.514.514 0 00.684.27 M22.807 11.975a.518.518 0 01-.417-.214c-1.695-2.323-4.461-3.713-7.4-3.713a9.214 9.214 0 00-3.765.792.515.515 0 01-.682-.271.527.527 0 01.267-.69A10.262 10.262 0 0114.99 7c3.266 0 6.344 1.547 8.233 4.139a.53.53 0 01-.11.733.508.508 0 01-.306.103"/></symbol>
</svg>